<svg width="32" height="32" viewBox="0 0 32 32" fill="none" xmlns="http://www.w3.org/2000/svg">
<path d="M0 16C0 8.80395 0 5.20593 2.0716 2.84372C2.31185 2.56977 2.56977 2.31185 2.84372 2.0716C5.20593 0 8.80395 0 16 0C23.196 0 26.7941 0 29.1563 2.0716C29.4302 2.31185 29.6882 2.56977 29.9284 2.84372C32 5.20593 32 8.80395 32 16C32 23.196 32 26.7941 29.9284 29.1563C29.6882 29.4302 29.4302 29.6882 29.1563 29.9284C26.7941 32 23.196 32 16 32C8.80395 32 5.20593 32 2.84372 29.9284C2.56977 29.6882 2.31185 29.4302 2.0716 29.1563C0 26.7941 0 23.196 0 16Z" fill="white"/>
<path d="M3.2 14.4C3.2 11.3072 5.70721 8.8 8.8 8.8C11.8928 8.8 14.4 11.3072 14.4 14.4V15.2C14.4 18.2928 11.8928 20.8 8.8 20.8C5.70721 20.8 3.2 18.2928 3.2 15.2V14.4Z" fill="#1F1F1F"/>
<path d="M17.6 14.4C17.6 11.3072 20.1072 8.8 23.2 8.8C26.2928 8.8 28.8 11.3072 28.8 14.4V15.2C28.8 18.2928 26.2928 20.8 23.2 20.8C20.1072 20.8 17.6 18.2928 17.6 15.2V14.4Z" fill="#1F1F1F"/>
<path d="M21.6 13.4C21.6 11.7431 22.9431 10.4 24.6 10.4C26.2569 10.4 27.6 11.7431 27.6 13.4C27.6 15.0569 26.2569 16.4 24.6 16.4C22.9431 16.4 21.6 15.0569 21.6 13.4Z" fill="white"/>
<path d="M7.2 13.4C7.2 11.7431 8.54315 10.4 10.2 10.4C11.8569 10.4 13.2 11.7431 13.2 13.4C13.2 15.0569 11.8569 16.4 10.2 16.4C8.54315 16.4 7.2 15.0569 7.2 13.4Z" fill="white"/>
</svg>
